<?xml version="1.0" encoding="UTF-8"?>
<!DOCTYPE svg PUBLIC "-//W3C//DTD SVG 1.1//EN" "http://www.w3.org/Graphics/SVG/1.1/DTD/svg11.dtd">
<!-- Creator: CorelDRAW 2019 (64-Bit) -->
<svg xmlns="http://www.w3.org/2000/svg" xml:space="preserve" width="27.171mm" height="8.881mm" version="1.1" style="shape-rendering:geometricPrecision; text-rendering:geometricPrecision; image-rendering:optimizeQuality; fill-rule:evenodd; clip-rule:evenodd"
viewBox="0 0 2717.1 888.1"
 xmlns:xlink="http://www.w3.org/1999/xlink"
 xmlns:xodm="http://www.corel.com/coreldraw/odm/2003">
 <defs>
  <style type="text/css">
   <![CDATA[
    .fil0 {fill:#2B2A29;fill-rule:nonzero}
    .fil1 {fill:#FFC107;fill-rule:nonzero}
   ]]>
  </style>
 </defs>
 <g id="Слой_x0020_1">
  <metadata id="CorelCorpID_0Corel-Layer"/>
  <path class="fil0" d="M304.96 515.9c0.12,17.43 1.57,32.58 4.73,45.34 6.92,28.02 19.3,49.61 36.9,64.58 17.68,14.95 35.15,21.32 52.36,18.91 9.19,-1.29 18.25,-5.08 27.33,-11.45 9.1,-6.31 16.25,-13.19 21.95,-20.96 18.41,-23.75 36.14,-70.59 53.17,-140.39 16.91,-69.83 21.89,-118.62 15.02,-146.43 -3.35,-13.59 -15.59,-23.43 -36.24,-29.57 -20.74,-6.13 -39,-8.01 -54.92,-5.78 -4.51,0.64 -8.07,1.99 -10.77,3.81 -2.58,1.87 -3.88,3.56 -3.54,4.95 0.06,0.2 0.4,0.37 1.21,0.26l1.94 -0.28c11.59,-1.62 21.49,13.78 29.5,46.24 9.9,40.02 9.83,87.12 -0.45,141.45 -10.36,54.42 -24.39,88.12 -42.08,101.29 -9.08,-9.84 -16.16,-25 -21.24,-45.52 -5.16,-20.89 -7.84,-48.72 -8.34,-83.45 -0.51,-34.81 -2.9,-61.38 -7.44,-79.84 -2.22,-8.94 -13.05,-17.75 -32.18,-26.2 -19.11,-8.44 -36.39,-11.68 -51.47,-9.56 -0.83,0.12 -1.4,0.85 -2.26,2.04 -0.85,1.13 -1.21,2.04 -1.05,2.66 0.18,0.77 1.8,2.69 4.8,5.57 2.92,2.97 4.88,6.27 5.74,9.74 4.35,17.62 4.8,44.47 1.35,80.26 -4.63,23.99 -15.3,50.89 -31.92,80.71 -16.6,29.89 -35.42,55 -56.37,75.39 -0.16,-15.34 4.07,-52.47 12.63,-111.44 8.55,-58.98 10.27,-98.26 5.4,-117.96 -6.96,-27.8 -27.37,-39.15 -61.04,-34.41 -25.03,3.51 -50.78,13.23 -77.24,29.07 -26.46,15.85 -47.73,33.77 -63.47,53.64 -15.65,19.85 -21.8,36.93 -18.24,51.36 1.77,7.14 5.44,12.73 10.91,16.76 5.49,4.12 12.9,8.31 22.4,12.87 9.49,4.54 17.45,9.74 23.99,15.79 1.52,0.78 3.88,1.1 7.1,0.65 5.34,-0.75 11.86,-2.89 19.53,-6.55 7.77,-3.6 11.36,-5.97 11,-7.43 -0.42,-0.58 -5,-0.95 -13.5,-1.47 -8.39,-0.47 -13.25,-3.17 -14.51,-8.23 -1.45,-5.9 1.36,-18.06 8.72,-36.82 7.37,-18.69 19.16,-37.58 35.23,-56.91 16.17,-19.28 33.3,-30.08 51.34,-32.62 2.06,27.63 -3.49,77.21 -16.74,148.76 -13.27,71.48 -20.35,110.59 -20.96,116.99 -0.15,0.59 -0.16,1.67 0.25,3.34 2,8.11 9.6,17.31 22.7,27.52 13.07,10.16 24.46,14.65 33.93,13.32 16.19,-2.28 38.76,-23.75 67.7,-64.62 28.7,-41 47.74,-72.6 56.64,-95.1l0.5 -0.28zm445.81 -51.22c-1.93,6.8 -7.2,18.23 -15.5,34.33 -8.3,16.09 -15.13,24.66 -20.28,25.38 -2.64,0.51 -4.37,-1.1 -5.27,-4.78 -2.41,-9.71 -0.36,-31.89 6.41,-66.5 6.79,-34.55 9.87,-52.48 9.53,-53.87 -1.71,-6.94 -8.33,-13.33 -19.76,-19.11 -11.5,-5.71 -21.78,-8.07 -30.72,-6.82 -11.03,1.55 -35.49,24.3 -73.42,68.38 1.63,-8.05 4.25,-17.89 7.68,-29.71 3.46,-11.83 6.13,-21.46 8.18,-28.93 2.09,-7.4 4.04,-15.28 5.91,-23.51 1.88,-8.22 3.02,-15.14 3.55,-20.67 0.62,-5.54 0.36,-9.73 -0.4,-12.79 -2.46,-9.99 -11.56,-17.53 -27.25,-22.43 -15.78,-4.97 -31.99,-6.27 -48.92,-3.89 -0.83,0.11 -1.55,0.64 -2.4,1.84 -0.76,1.19 -1.12,2.02 -0.96,2.65 0.2,0.82 1.79,2.69 4.72,5.65 3.01,2.95 4.88,6.27 5.73,9.67 1.74,10.52 -3.74,50.4 -16.42,119.65 -12.75,69.33 -16.4,114.62 -11.19,135.71 6.53,26.42 20.65,38.15 42.45,35.09 19.14,-2.69 33.22,-9.98 42.64,-21.57 -7.35,-9.3 -12.88,-21.72 -16.75,-37.4 -4.67,-18.87 -0.61,-41.76 12.53,-68.66 13.18,-26.82 28.37,-46.6 45.86,-59.4 -3.77,23.28 -5.9,48.55 -6.63,76 -0.74,27.45 0.24,46.04 2.64,55.75 7.68,31.86 21.31,46.6 41,43.83 12.68,-1.78 28.68,-18.38 47.97,-49.65 19.4,-31.29 31.12,-53.61 35.39,-66.77 0.37,-1.98 0.34,-3.2 0.14,-4.04 -1.5,-6.03 -10.45,-10.66 -26.77,-13.6l0.31 0.17zm207.82 -29.55c-1.94,6.8 -7.2,18.23 -15.51,34.33 -8.28,16.16 -15.13,24.65 -20.18,25.37 -2.44,0.55 -4.18,-1.07 -5.08,-4.74 -2.27,-9.17 0,-29.29 6.84,-60.11 6.86,-30.81 10.23,-46.86 9.99,-47.83 -1.66,-6.73 -7.98,-13.02 -19.26,-18.98 -11.2,-6.03 -21.28,-8.34 -30.17,-7.31 -2.76,0.39 -4.75,2.32 -6.11,6.09 -18.02,-22.51 -41.79,-31.58 -71.12,-27.46 -15.08,2.12 -27.63,11.06 -38.07,26.59 -10.34,15.59 -17.08,33.33 -20.27,53.16 -3.21,19.76 -5.04,38.53 -5.39,56.02 -0.42,17.57 0.31,30.89 2.52,39.84 11.29,45.7 29.67,66.95 54.97,63.4 10.85,-1.53 20.62,-8.21 29.2,-19.68 8.59,-11.54 17.34,-28.13 26.17,-49.75 0.5,6.67 1.61,13.41 3.32,20.34 8.09,32.74 21.86,47.67 41.56,44.9 12.32,-1.73 28.91,-19.27 49.96,-52.73 20.98,-33.38 31.39,-54.44 31.48,-63.28l-0.65 -2.63c-1.76,-7.14 -10.08,-12.29 -24.48,-15.51l0.28 -0.03zm-148.46 35.56c-3.76,-15.26 -4.73,-31.49 -2.9,-48.75 1.9,-17.35 4.8,-31.4 9.19,-42.13 4.32,-10.65 8.43,-16.33 12.49,-16.9 8.91,-1.25 21.82,7.06 38.83,25.04 -3.82,23.08 -6.53,43.63 -8.11,61.93 -12.4,32.25 -22.76,48.85 -31.13,50.03 -7.23,1.23 -13.51,-8.44 -18.54,-28.77l0.17 -0.45zm166.61 -234.83c-0.83,0.11 -1.68,0.87 -2.53,2.07 -0.88,1.13 -1.21,2.03 -1.06,2.66 0.18,0.76 1.82,2.69 4.72,5.59 3,2.94 4.97,6.26 5.81,9.66 0.6,2.43 -0.68,12.29 -3.34,29.6 -2.66,17.38 -4.14,27.21 -4.37,29.75l-9.39 1.32c-8.86,1.46 -16.03,5.2 -21.49,11.2 -5.44,6.08 -7.36,12.17 -5.87,18.27 1.46,5.89 4.37,8.43 8.97,7.78 0.74,-0.1 2.2,-1.17 4.19,-3.1 2.08,-1.95 4.67,-3.82 7.85,-5.55 3.21,-1.68 7.48,-2.49 12.56,-2.34 -1.72,11.15 -4.35,26.66 -8.05,46.35 -3.79,19.69 -6.56,35.43 -8.45,47.11 -1.89,11.61 -3.19,24.43 -3.94,38.38 -0.71,14.02 -0.02,25.69 2.34,35.27 3.38,13.66 9.24,25.04 17.25,33.96 8.12,8.98 17.43,12.77 27.92,11.3 10.02,-1.41 22.53,-11.64 37.94,-30.6 15.37,-19.03 28.25,-37.84 38.63,-56.6 10.52,-18.69 15.43,-29.29 14.78,-31.93 -0.96,-3.88 -4.79,-7.8 -11,-11.73 -6.31,-3.99 -10.67,-5.89 -13.07,-5.55 0.74,-0.11 -1.93,4.93 -8,15.04 -6.16,10.13 -13.42,20.4 -21.42,30.78 -8,10.38 -13.98,15.82 -17.48,16.31 -2.66,0.38 -4.76,-2.28 -6.21,-8.17 -0.75,-3.05 -1.08,-6.74 -1.06,-11.19 0.06,-4.45 0.38,-9.73 1.38,-15.98 0.94,-6.24 1.93,-12.25 3.07,-18.09 1.02,-5.88 2.58,-13 4.62,-21.75 2.03,-8.68 3.6,-15.86 5.06,-21.52 1.4,-5.44 3.38,-13.25 6.22,-23.34 2.74,-10.07 4.55,-17.44 5.63,-22.25 1.34,0.03 3.32,-0.04 5.72,-0.37 7.81,-1.1 13.9,-3.82 18,-8.41 4.19,-4.62 5.39,-9.8 3.93,-15.7 -0.39,-1.59 -1.43,-2.31 -3.27,-2.05 -1.66,0.23 -3.77,0.53 -6.67,1.15 -2.89,0.62 -4.82,0.89 -5.92,1.04 -2.94,0.42 -5.1,0.51 -6.53,0.49 -0.1,-1.49 0.59,-6.4 2.36,-15.04 1.77,-8.65 3.22,-16.67 4.17,-23.92 0.97,-7.31 1.34,-11.59 1.1,-12.56 -2.46,-9.99 -11.52,-17.33 -27.3,-22.29 -15.69,-4.9 -31.91,-6.22 -48.92,-3.83l1.12 -1.22zm106.92 -16.47c-6.17,0.87 -8.94,3.13 -8.3,6.84 0.17,6.51 -0.89,18 -3.46,34.58 -2.58,16.51 -2.9,28.75 -0.92,36.73 3.16,12.76 11.98,18.06 26.79,15.98 8.01,-1.13 12.23,-4.45 12.21,-9.91 0.38,-6.58 4.13,-17.22 11.62,-31.91 7.41,-14.76 10.68,-24.26 9.63,-28.49 -1.35,-5.47 -8.06,-11.06 -19.81,-17.02 -11.74,-5.89 -21.2,-8.36 -28.2,-7.38l0.44 0.58zm259.41 90.38c-2.57,-10.41 -3.39,-19.55 -2.3,-27.46 1.08,-7.97 1.4,-12.46 1.16,-13.43 -1.06,-4.31 -4.27,-7.23 -9.47,-9.01 -5.19,-1.78 -10.66,-2.3 -16.27,-1.52 -7.25,1.02 -13.33,2.3 -17.99,3.82 -4.67,1.52 -9.18,4.45 -13.65,9.09 -4.39,4.57 -7.12,10.48 -8.37,17.76 -5.33,7.72 -14.41,22.91 -27.2,45.52 -12.78,22.61 -22.7,38.72 -29.45,48.35 -0.9,-0.52 -2.05,-0.58 -3.42,-0.38 -3.97,0.56 -7.47,3.35 -10.18,8.17 -2.64,4.76 -3.11,10.92 -1.24,18.48 1.64,6.66 5.83,15.54 12.22,26.7 6.26,11.11 14.53,22.94 24.47,35.46 10.04,12.52 22.56,22.74 37.51,30.48 15.06,7.79 30.25,10.75 45.25,8.64 24.28,-3.41 39.56,-14.82 46.16,-34.26 6.62,-19.45 6.26,-43.23 -0.66,-71.25 -2.83,-11.44 -7.47,-27.16 -14.14,-47.24 -6.7,-20.16 -11.35,-35.87 -14.23,-47.52l1.8 -0.4zm-100.12 100.54c15.06,-28.02 28.89,-55.23 41.32,-81.59 4.01,10.42 8.16,24.11 12.33,40.97 14.22,57.57 13.57,87.31 -2.34,89.54 -10.49,1.48 -21.21,-4.56 -32,-18.19 -10.88,-13.6 -17.32,-23.9 -19.07,-30.98l-0.24 0.25zm484.12 -83.01c-1.94,6.8 -7.2,18.23 -15.5,34.33 -8.3,16.09 -15.05,24.58 -20.2,25.3 -2.63,0.58 -4.44,-1.02 -5.36,-4.7 -2.35,-9.5 -0.3,-31.68 6.42,-66.5 6.74,-34.75 9.81,-52.7 9.58,-53.66 -1.66,-6.74 -8.25,-12.98 -19.71,-18.91 -11.46,-5.93 -21.56,-8.31 -29.93,-7.14 -8.84,1.25 -33.34,23.78 -73.45,67.96 0.02,-1.08 0.18,-2.82 0.35,-5.15 0.29,-2.34 0.5,-4.88 0.69,-7.63 0.17,-2.75 0.3,-5.28 0.79,-7.93 0.51,-2.59 0.89,-4.51 1.26,-6.07l0.51 -2.58c-0.92,-3.68 -8.98,-8.21 -24.3,-13.6 -15.25,-5.47 -26.07,-7.68 -32.33,-6.8 -3.49,0.49 -4.82,1.69 -4.35,3.56 0.05,0.21 0.09,0.42 0.41,0.52 0.33,0.16 0.38,0.37 0.44,0.58 -17.46,93.1 -23,151.94 -16.94,176.49 6.87,27.82 21.17,40.17 42.41,37.18 19.41,-2.73 33.78,-10.06 43.2,-21.64 -7.35,-9.3 -12.89,-21.74 -16.77,-37.41 -4.65,-18.87 -0.61,-41.75 12.55,-68.65 13.16,-26.82 28.35,-46.62 45.85,-59.41 -3.7,23.49 -5.79,48.97 -6.49,76.63 -0.68,27.65 0.24,45.97 2.49,55.13 7.62,32.3 21.33,47.02 40.92,44.27 12.7,-1.79 29.5,-19.28 50.55,-52.75 20.96,-33.45 31.39,-54.43 31.48,-63.27 -1.06,-4.3 -4.36,-8.43 -9.9,-12.74 -5.48,-4.4 -10.66,-6.19 -15.27,-5.54l0.6 0.13zm187.96 -26.62c-2.93,7.37 -6.52,15.2 -11.13,23.88 -4.54,8.6 -10.23,18.23 -16.77,28.84 -6.59,10.62 -14.07,19.7 -22.55,27 -8.56,7.3 -16.91,11.63 -25.01,12.77 -12.36,0.87 -22.69,-4 -31.52,-14.74 -8.76,-10.75 -14.72,-22.55 -17.95,-35.58 -1.44,-5.9 -2.04,-10.63 -1.95,-14.45 12.36,6.88 25.19,9.46 38.42,7.59 11.05,-1.55 21.42,-8.88 31.53,-22.29 10.2,-13.42 17.58,-27.45 22.32,-42.18 4.72,-14.8 6.15,-25.91 4.31,-33.4 -3.37,-13.6 -16.02,-24.45 -38.09,-32.47 -22.09,-8.1 -42.25,-10.72 -60.65,-8.13 -16.1,2.26 -29.36,11.73 -39.54,28.3 -10.12,16.49 -16.61,35.28 -19.38,56.05 -2.65,20.82 -4.03,39.89 -4.24,57.14 -0.19,17.34 0.71,29.84 2.61,37.54 12.32,49.87 45.46,71.12 99.65,63.51 20.95,-2.94 40.37,-12.64 58.23,-29.29 17.98,-16.59 31.95,-35.63 42.24,-57.1 9.7,-20.45 14.19,-32.71 13.25,-36.53 -1.67,-7.16 -9.71,-12.34 -24.11,-15.56l0.33 -0.9zm-108.39 -78.51c4.79,-0.67 12.24,3.31 21.87,11.86 2.03,16.3 0.03,32.79 -6.21,49.17 -6.31,16.46 -13.09,25.24 -20.07,26.22 -5.39,0.54 -11.08,-2.04 -16.67,-7.78 0.13,-12.87 1.47,-25.61 4.25,-38.21 2.71,-12.57 5.59,-22.46 8.77,-29.65 3.27,-7.13 5.97,-10.89 8.17,-11.19l-0.11 -0.42zm123.77 187.01c-0.19,3.83 0.12,7.38 0.96,10.78 1.56,6.31 6.22,12.83 14,19.34 7.72,6.53 14.88,9.33 21.59,8.38 3.23,-0.45 4.63,-1.72 4.08,-3.94 4.58,-27.64 12.86,-56.14 24.58,-85.34 19.8,28.08 36.95,41.24 51.86,39.15 12.87,-1.81 30.18,-17.66 51.76,-47.82 21.48,-30.15 32.33,-49.4 32.58,-57.62 -1.06,-4.3 -4.36,-8.43 -9.89,-12.68 -5.44,-4.33 -10.64,-6.11 -15.24,-5.46 -0.12,0.66 -1.66,4.46 -4.43,11.38 -2.78,6.85 -5.28,12.51 -7.5,16.99 -2.21,4.55 -5.11,9.76 -8.61,15.99 -3.53,6.17 -7.4,10.87 -11.21,14.36 -3.88,3.48 -7.58,5.51 -11.08,6 -2.54,0.14 -4.86,-0.4 -7.18,-1.72 -5.15,-3.08 -15.28,-16.8 -30.04,-41.42 46.64,-91.32 72.6,-137.67 77.5,-139 2.21,-0.31 2.91,-1.7 2.31,-4.13 -0.54,-2.22 -5.02,-4.53 -13.37,-6.73 -8.35,-2.2 -15.49,-2.92 -21.36,-2.1 -3.5,0.49 -7.03,3.15 -10.97,7.65 -3.91,4.56 -8.11,11.04 -12.99,19.77 -4.82,8.64 -9.09,17.2 -13.15,25.81 -3.98,8.52 -8.9,19.12 -15.05,31.54 -6.15,12.42 -11.17,22.59 -15.29,30.57 -20.09,-37.37 -30.97,-59.82 -32.82,-67.38 -0.76,-3.04 -3.07,-5.45 -6.79,-7.01 -3.72,-1.55 -8.12,-2.45 -13.23,-2.73 -5.05,-0.37 -9.52,-0.39 -13.35,-0.07 -3.82,0.33 -7.36,0.61 -10.68,1.08 -16.64,2.34 -24.36,6.15 -23.04,11.48 0.79,0.9 2.33,3.62 4.72,7.96 2.48,4.24 4.74,8.8 6.68,13.55 2.03,4.74 3.74,9.39 4.84,13.82 5.23,21.15 3.65,45.14 -4.53,71.76 0.54,2.22 5.13,9.61 13.48,21.87 4.26,7.22 6.95,10 7.6,8.4 1.16,-2.25 2.3,-5.35 3.61,-9.34 1.19,-3.97 2.49,-7.96 3.71,-11.86 1.32,-3.99 2.57,-7.75 3.54,-11.47 1.08,-3.75 1.98,-7.03 2.4,-9.6l1.67 -3.61 16.42 30.57c-24.66,51.18 -37.05,82.35 -37.38,93.38l-0.71 -0.55zm194.86 -334.68c-0.83,0.11 -1.68,0.87 -2.55,2.07 -0.86,1.13 -1.2,2.03 -1.04,2.66 0.18,0.76 1.8,2.69 4.7,5.59 3.02,2.94 4.98,6.26 5.81,9.66 0.61,2.43 -0.66,12.29 -3.34,29.6 -2.65,17.38 -4.12,27.21 -4.35,29.75l-9.39 1.32c-8.86,1.46 -16.03,5.2 -21.5,11.2 -5.45,6.08 -7.37,12.17 -5.86,18.27 1.46,5.89 4.37,8.43 8.97,7.78 0.74,-0.1 2.19,-1.17 4.18,-3.1 2.08,-1.95 4.66,-3.82 7.86,-5.55 3.2,-1.68 7.48,-2.49 12.56,-2.34 -1.73,11.15 -4.35,26.66 -8.05,46.35 -3.79,19.69 -6.58,35.43 -8.45,47.11 -1.9,11.61 -3.2,24.43 -3.94,38.38 -0.71,14.02 -0.04,25.69 2.34,35.27 3.36,13.66 9.23,25.04 17.25,33.96 8.12,8.98 17.43,12.77 27.9,11.3 10.03,-1.41 22.55,-11.64 37.95,-30.6 15.37,-19.03 28.24,-37.84 38.64,-56.6 10.52,-18.69 15.42,-29.29 14.77,-31.93 -0.95,-3.88 -4.78,-7.8 -10.99,-11.73 -6.31,-3.99 -10.69,-5.89 -13.08,-5.55 0.75,-0.11 -1.93,4.93 -7.99,15.04 -6.16,10.13 -13.42,20.4 -21.43,30.78 -8,10.38 -13.98,15.82 -17.47,16.31 -2.68,0.38 -4.76,-2.28 -6.22,-8.17 -0.76,-3.05 -1.09,-6.74 -1.05,-11.19 0.04,-4.45 0.36,-9.73 1.38,-15.98 0.94,-6.24 1.92,-12.25 3.06,-18.09 1.01,-5.88 2.59,-13 4.62,-21.75 2.04,-8.68 3.59,-15.86 5.05,-21.52 1.42,-5.44 3.4,-13.25 6.24,-23.34 2.74,-10.07 4.53,-17.44 5.62,-22.25 1.35,0.03 3.33,-0.04 5.73,-0.37 7.81,-1.1 13.9,-3.82 17.99,-8.41 4.19,-4.62 5.39,-9.8 3.93,-15.7 -0.38,-1.59 -1.43,-2.31 -3.28,-2.05 -1.64,0.23 -3.76,0.53 -6.65,1.15 -2.89,0.62 -4.83,0.89 -5.92,1.04 -2.96,0.42 -5.12,0.51 -6.55,0.49 -0.08,-1.49 0.61,-6.4 2.37,-15.04 1.78,-8.65 3.21,-16.67 4.18,-23.92 0.96,-7.31 1.33,-11.59 1.09,-12.56 -2.47,-9.99 -11.53,-17.33 -27.31,-22.29 -15.69,-4.9 -31.89,-6.22 -48.91,-3.83l1.13 -1.22z"/>
  <path class="fil1" d="M1727.48 861.11c20.5,-5.67 36.96,-17.54 48.92,-35.43 12.01,-17.82 19.45,-37.44 22.41,-58.65 2.98,-21.13 3.87,-41.09 2.72,-59.96 -1.14,-18.93 -4.08,-33.92 -8.31,-45.04 -12.72,-33.39 -32.72,-47.7 -59.95,-42.79 -22.49,4.27 -44.8,27.22 -67,68.84 1.69,-6.67 4.22,-15.04 7.26,-24.87 3.01,-9.9 5.26,-17.99 6.69,-24.41 1.56,-6.44 3.26,-13.13 4.89,-19.95 1.66,-6.83 2.74,-12.54 3.12,-17.24 0.29,-4.7 -0.08,-8.47 -1.06,-11.05 -3.54,-9.3 -15.24,-15.82 -35.56,-19.55 -20.34,-3.74 -40.91,-3.65 -61.91,0.14 -1.02,0.17 -2.15,1.03 -3.11,2.29 -0.9,1.18 -1.27,2.11 -1.03,2.72 0.28,0.76 2.27,2.49 6.22,5.2 3.82,2.71 6.44,5.79 7.74,9.19 2.75,10.09 -0.91,49.83 -10.74,119.77 -9.82,70.01 -11,115.25 -3.11,135.94 11.86,32.09 30.07,46.51 54.25,42.15 10.4,-1.66 23.4,-12.05 39.4,-30.52 11,6.28 26.15,7.83 45.78,4.29l2.38 -1.07zm-77.08 -95.98c26.58,-51.78 46.54,-78.94 59.48,-81.28 5.66,-1.01 10.59,4.27 14.92,15.59 5.9,15.47 6.87,32.99 2.79,52.21 -4.09,19.16 -11.31,35.84 -21.73,49.6 -10.5,13.78 -20.97,21.63 -31.29,23.48 -7.03,1.28 -13.59,-0.96 -19.72,-6.88 -5.14,-21.77 -6.88,-39.37 -5.13,-52.6l0.68 -0.12zm395.08 -77.72c-1.98,6.89 -7.73,18.81 -17.01,35.56 -9.26,16.74 -17.2,25.79 -23.55,26.94 -3.3,0.59 -3.85,-8.23 -1.82,-26.43 1.91,-18.18 4.34,-37.91 7.22,-59.31 2.9,-21.33 3.64,-34.37 1.72,-39.4 -3.26,-8.55 -13.31,-15.23 -30.07,-20.04 -16.77,-4.88 -32.84,-7.92 -48.56,-9.07 -15.64,-1.26 -31.06,-1.67 -46.52,-1.21 -0.57,-2.43 -1.29,-5.27 -2.59,-8.66 -2.07,-4.48 -6.38,-8.21 -12.41,-10.97 -6,-2.69 -12.05,-4.57 -18.08,-5.44 -6,-0.8 -12.79,-1.11 -20.2,-0.79 -7.3,0.23 -12.53,0.53 -15.32,0.81 -2.68,0.27 -4.81,0.43 -6.06,0.65 1.94,4.16 4.39,9.88 7.25,17.41 17.51,45.94 19.49,91.91 5.49,138.17l-8 21.02c1.74,4.55 7.18,6.76 16.68,6.56 9.48,-0.26 16.93,-1.38 22.22,-3.42 5.2,-10.51 11.35,-29.68 18.74,-57.76 7.47,-28.1 11.37,-51.29 12.13,-69.92 23.83,6.51 37.35,14.3 40.76,23.26 6.55,16.87 7.66,43 3.96,78.48 -3.79,35.56 -5.22,55.97 -4.29,61.32 2.28,12.34 8.72,22.86 19.38,31.38 10.72,8.44 22.5,11.69 35.44,9.36 15.88,-2.86 35.49,-21.71 59.45,-56.83 23.84,-35.12 35.41,-56.94 34.96,-65.77l-0.92 -2.45c-2.64,-6.92 -13.12,-11.19 -31.08,-12.81l1.08 -0.64zm218.49 -28.92c0.08,0.21 -0.69,1 -2.03,2.25 -1.21,1.31 -3.89,2.88 -7.48,4.55 -3.6,1.73 -8.44,3.03 -14.45,4.12 -4.98,0.9 -10.82,1.52 -17.37,1.83 8.42,-32.99 9.16,-58.74 2.26,-76.84 -5.25,-13.79 -18.22,-25.51 -38.88,-35.2 -20.78,-9.68 -46.46,-11.86 -77.45,-6.29 -18.95,3.42 -34.36,13.23 -46.18,29.65 -11.92,16.43 -19.19,34.57 -22.18,54.68 -3.01,20.13 -4.34,38.93 -3.7,56.51 0.59,17.51 2.59,31 6.13,40.29 3.42,8.97 7.05,16.58 10.48,22.7 3.42,6.13 8.32,12.65 14.4,19.38 6.21,6.71 14.23,11.21 24.12,13.63 9.78,2.46 21.23,2.57 33.82,0.29 37.54,-6.76 66.2,-34.98 85.97,-84.89 10.89,-0.06 20.86,-1 29.81,-2.62 27.61,-5.19 46.24,-15.78 56.15,-31.78 0.1,-0.68 0.24,-1.28 -0.08,-2.1 -1.36,-3.6 -6.54,-6.07 -15.32,-7.46 -8.66,-1.41 -15.28,-1.89 -19.48,-1.79l1.46 -0.91zm-150.48 33.94c-4.58,-15.79 -5.99,-32.58 -4.01,-50.63 1.97,-18.04 5.31,-32.5 10.13,-43.38 4.72,-10.85 8.98,-16.55 12.61,-17.2 3.96,-0.71 8.15,-0.83 12.93,-0.38 4.76,0.38 10.87,3.34 18.54,8.56 7.69,5.22 13.53,12.93 17.47,23.24 3.95,10.39 2.2,28.4 -5.08,53.78l-3.08 0.56c-8.94,1.61 -15.38,5.1 -19.12,10.26 -3.73,5.18 -4.64,10.4 -2.58,15.77 1.62,3.33 4.28,6.47 8.29,9.38 -3.07,8.81 -8.57,14.09 -16.84,15.59 -12.26,2.2 -21.92,-6.28 -29.26,-25.55z"/>
  <path class="fil1" d="M2687.36 86.66c-14.59,-35.89 -45.52,-59.07 -92.42,-69.49 -46.73,-10.47 -95.29,-8.45 -145.69,6.65 -53.56,16.05 -94.53,44.26 -123.56,84.8 -29.19,40.62 -35.96,80.69 -20.37,120.56 5.94,15.18 25.54,26.12 58.93,33.07 33.34,6.82 60.99,7.24 82.57,0.77 13.23,-3.97 18.4,-10.39 15.09,-18.83 -0.61,-1.59 -2.81,-4.32 -7.13,-8.18 -4.2,-4.06 -7.01,-8.38 -8.82,-13 -5,-12.8 -7.88,-28.76 -8.83,-47.93 -0.95,-19.18 3.11,-39.43 12.45,-60.52 9.39,-20.95 24.31,-34.42 44.9,-40.59 33.96,-9.74 58.6,3.97 73.3,41.6 10.89,27.85 12.21,59.47 4.13,94.77 -8.07,35.31 -21.9,68.8 -40.73,100.55 -18.86,31.62 -38.87,61.79 -59.15,90.73 -20.42,29.12 -36.97,55.62 -49.59,79.31 -12.62,23.7 -16.71,41.43 -12.16,53.05 5.25,13.47 15.89,22.52 31.76,26.76 16.09,4.32 30.81,4.18 44.04,0.22 15.23,-4.57 21.29,-11.1 17.93,-19.68 -4.7,-12.02 0.77,-29.12 16.66,-51.6 15.84,-22.59 35.99,-48.1 59.86,-76.49 24.09,-28.31 47.2,-58.67 70.23,-91.1 22.87,-32.37 38.47,-69.49 47.43,-111.12 8.98,-41.62 6.2,-82.21 -8.94,-122.37l-1.89 -1.94zm-144 556.24c-5,-12.81 -13.59,-21.88 -25.83,-27.8 -12,-5.84 -25.04,-6.65 -38.27,-2.68 -20.08,6.01 -35.17,19.08 -45.46,39.14 -10.35,19.9 -11.91,39.4 -4.64,58 5.01,12.81 12.95,22.09 24.36,27.38 11.36,5.14 24.12,5.73 38.35,1.47 22.1,-6.62 38.13,-20.12 47.84,-40.28 9.46,-20.25 11.14,-38.45 4.78,-54.68l-1.13 -0.55z"/>
 </g>
</svg>
