<?xml version="1.0" encoding="UTF-8"?>
<!DOCTYPE svg PUBLIC "-//W3C//DTD SVG 1.1//EN" "http://www.w3.org/Graphics/SVG/1.1/DTD/svg11.dtd">
<!-- Creator: CorelDRAW 2019 (64-Bit) -->
<svg xmlns="http://www.w3.org/2000/svg" xml:space="preserve" width="22.671mm" height="8.881mm" version="1.1" style="shape-rendering:geometricPrecision; text-rendering:geometricPrecision; image-rendering:optimizeQuality; fill-rule:evenodd; clip-rule:evenodd"
viewBox="0 0 2267.1 888.1"
 xmlns:xlink="http://www.w3.org/1999/xlink"
 xmlns:xodm="http://www.corel.com/coreldraw/odm/2003">
 <defs>
  <style type="text/css">
   <![CDATA[
    .fil0 {fill:#2B2A29;fill-rule:nonzero}
    .fil1 {fill:#FFC107;fill-rule:nonzero}
   ]]>
  </style>
 </defs>
 <g id="Слой_x0020_1">
  <metadata id="CorelCorpID_0Corel-Layer"/>
  <path class="fil0" d="M218.35 649.76c0.09,17.43 1.18,32.58 3.56,45.34 5.22,28.02 14.56,49.61 27.83,64.58 13.33,14.95 26.5,21.32 39.48,18.91 6.93,-1.29 13.76,-5.08 20.61,-11.45 6.86,-6.31 12.25,-13.19 16.55,-20.96 13.88,-23.75 27.25,-70.59 40.09,-140.39 12.75,-69.83 16.51,-118.62 11.33,-146.43 -2.53,-13.59 -11.76,-23.43 -27.33,-29.57 -15.64,-6.13 -29.41,-8.01 -41.41,-5.78 -3.4,0.64 -6.09,1.99 -8.12,3.81 -1.95,1.87 -2.93,3.56 -2.67,4.95 0.04,0.2 0.3,0.37 0.91,0.26l1.46 -0.28c8.74,-1.62 16.21,13.78 22.25,46.24 7.46,40.02 7.41,87.12 -0.34,141.45 -7.81,54.42 -18.39,88.12 -31.73,101.29 -6.85,-9.84 -12.19,-25 -16.02,-45.52 -3.89,-20.89 -5.91,-48.72 -6.29,-83.45 -0.38,-34.81 -2.18,-61.38 -5.61,-79.84 -1.67,-8.94 -9.84,-17.75 -24.26,-26.2 -14.41,-8.44 -27.44,-11.68 -38.81,-9.56 -0.63,0.12 -1.06,0.85 -1.71,2.04 -0.64,1.13 -0.91,2.04 -0.79,2.66 0.14,0.77 1.36,2.69 3.62,5.57 2.2,2.97 3.68,6.27 4.33,9.74 3.28,17.62 3.62,44.47 1.02,80.26 -3.49,23.99 -11.54,50.89 -24.07,80.71 -12.52,29.89 -26.71,55 -42.51,75.39 -0.12,-15.34 3.07,-52.47 9.53,-111.44 6.44,-58.98 7.74,-98.26 4.07,-117.96 -5.25,-27.8 -20.64,-39.15 -46.03,-34.41 -18.87,3.51 -38.29,13.23 -58.24,29.07 -19.95,15.85 -35.99,33.77 -47.86,53.64 -11.8,19.85 -16.44,36.93 -13.75,51.36 1.33,7.14 4.1,12.73 8.22,16.76 4.14,4.12 9.73,8.31 16.89,12.87 7.16,4.54 13.16,9.74 18.09,15.79 1.15,0.78 2.93,1.1 5.36,0.65 4.02,-0.75 8.94,-2.89 14.72,-6.55 5.86,-3.6 8.57,-5.97 8.3,-7.43 -0.32,-0.58 -3.77,-0.95 -10.18,-1.47 -6.33,-0.47 -9.99,-3.17 -10.94,-8.23 -1.1,-5.9 1.02,-18.06 6.57,-36.82 5.56,-18.69 14.45,-37.58 26.57,-56.91 12.19,-19.28 25.11,-30.08 38.71,-32.62 1.55,27.63 -2.63,77.21 -12.62,148.76 -10.01,71.48 -15.35,110.59 -15.81,116.99 -0.11,0.59 -0.12,1.67 0.19,3.34 1.51,8.11 7.24,17.31 17.12,27.52 9.85,10.16 18.44,14.65 25.58,13.32 12.21,-2.28 29.23,-23.75 51.05,-64.62 21.64,-41 36,-72.6 42.71,-95.1l0.38 -0.28zm336.16 -51.22c-1.46,6.8 -5.43,18.23 -11.69,34.33 -6.26,16.09 -11.41,24.66 -15.29,25.38 -1.99,0.51 -3.3,-1.1 -3.98,-4.78 -1.81,-9.71 -0.27,-31.89 4.84,-66.5 5.12,-34.55 7.44,-52.48 7.18,-53.87 -1.29,-6.94 -6.28,-13.33 -14.9,-19.11 -8.67,-5.71 -16.42,-8.07 -23.16,-6.82 -8.32,1.55 -26.76,24.3 -55.36,68.38 1.23,-8.05 3.2,-17.89 5.79,-29.71 2.61,-11.83 4.62,-21.46 6.17,-28.93 1.57,-7.4 3.04,-15.28 4.45,-23.51 1.42,-8.22 2.28,-15.14 2.68,-20.67 0.47,-5.54 0.27,-9.73 -0.3,-12.79 -1.86,-9.99 -8.72,-17.53 -20.55,-22.43 -11.9,-4.97 -24.12,-6.27 -36.89,-3.89 -0.62,0.11 -1.17,0.64 -1.81,1.84 -0.57,1.19 -0.84,2.02 -0.72,2.65 0.15,0.82 1.35,2.69 3.56,5.65 2.27,2.95 3.68,6.27 4.32,9.67 1.31,10.52 -2.82,50.4 -12.38,119.65 -9.62,69.33 -12.37,114.62 -8.44,135.71 4.92,26.42 15.57,38.15 32.01,35.09 14.43,-2.69 25.05,-9.98 32.15,-21.57 -5.54,-9.3 -9.71,-21.72 -12.63,-37.4 -3.52,-18.87 -0.46,-41.76 9.45,-68.66 9.94,-26.82 21.39,-46.6 34.58,-59.4 -2.84,23.28 -4.45,48.55 -5,76 -0.56,27.45 0.18,46.04 1.99,55.75 5.79,31.86 16.07,46.6 30.92,43.83 9.56,-1.78 21.62,-18.38 36.17,-49.65 14.63,-31.29 23.46,-53.61 26.68,-66.77 0.28,-1.98 0.26,-3.2 0.11,-4.04 -1.13,-6.03 -7.88,-10.66 -20.19,-13.6l0.24 0.17zm156.7 -29.55c-1.46,6.8 -5.43,18.23 -11.69,34.33 -6.25,16.16 -11.41,24.65 -15.22,25.37 -1.84,0.55 -3.15,-1.07 -3.83,-4.74 -1.71,-9.17 0,-29.29 5.16,-60.11 5.17,-30.81 7.71,-46.86 7.53,-47.83 -1.25,-6.73 -6.02,-13.02 -14.52,-18.98 -8.45,-6.03 -16.05,-8.34 -22.75,-7.31 -2.08,0.39 -3.58,2.32 -4.61,6.09 -13.59,-22.51 -31.51,-31.58 -53.63,-27.46 -11.37,2.12 -20.83,11.06 -28.7,26.59 -7.8,15.59 -12.88,33.33 -15.29,53.16 -2.42,19.76 -3.8,38.53 -4.06,56.02 -0.32,17.57 0.23,30.89 1.9,39.84 8.51,45.7 22.37,66.95 41.45,63.4 8.18,-1.53 15.55,-8.21 22.02,-19.68 6.47,-11.54 13.07,-28.13 19.73,-49.75 0.38,6.67 1.21,13.41 2.5,20.34 6.1,32.74 16.49,47.67 31.34,44.9 9.29,-1.73 21.8,-19.27 37.67,-52.73 15.82,-33.38 23.67,-54.44 23.74,-63.28l-0.49 -2.63c-1.33,-7.14 -7.6,-12.29 -18.46,-15.51l0.21 -0.03zm-111.94 35.56c-2.84,-15.26 -3.57,-31.49 -2.19,-48.75 1.43,-17.35 3.62,-31.4 6.93,-42.13 3.26,-10.65 6.36,-16.33 9.42,-16.9 6.72,-1.25 16.45,7.06 29.28,25.04 -2.88,23.08 -4.93,43.63 -6.12,61.93 -9.35,32.25 -17.16,48.85 -23.47,50.03 -5.45,1.23 -10.19,-8.44 -13.98,-28.77l0.13 -0.45zm125.63 -234.83c-0.63,0.11 -1.27,0.87 -1.91,2.07 -0.66,1.13 -0.91,2.03 -0.8,2.66 0.14,0.76 1.37,2.69 3.56,5.59 2.26,2.94 3.75,6.26 4.38,9.66 0.45,2.43 -0.51,12.29 -2.52,29.6 -2,17.38 -3.12,27.21 -3.29,29.75l-7.08 1.32c-6.68,1.46 -12.09,5.2 -16.21,11.2 -4.1,6.08 -5.55,12.17 -4.42,18.27 1.1,5.89 3.29,8.43 6.76,7.78 0.56,-0.1 1.66,-1.17 3.16,-3.1 1.57,-1.95 3.52,-3.82 5.92,-5.55 2.42,-1.68 5.64,-2.49 9.47,-2.34 -1.3,11.15 -3.28,26.66 -6.07,46.35 -2.86,19.69 -4.95,35.43 -6.37,47.11 -1.43,11.61 -2.41,24.43 -2.97,38.38 -0.54,14.02 -0.02,25.69 1.76,35.27 2.55,13.66 6.97,25.04 13.01,33.96 6.12,8.98 13.14,12.77 21.05,11.3 7.56,-1.41 16.99,-11.64 28.61,-30.6 11.59,-19.03 21.3,-37.84 29.13,-56.6 7.93,-18.69 11.63,-29.29 11.14,-31.93 -0.72,-3.88 -3.61,-7.8 -8.29,-11.73 -4.76,-3.99 -8.05,-5.89 -9.86,-5.55 0.56,-0.11 -1.45,4.93 -6.03,15.04 -4.64,10.13 -10.12,20.4 -16.15,30.78 -6.03,10.38 -10.54,15.82 -13.18,16.31 -2.01,0.38 -3.59,-2.28 -4.68,-8.17 -0.57,-3.05 -0.82,-6.74 -0.8,-11.19 0.04,-4.45 0.28,-9.73 1.04,-15.98 0.71,-6.24 1.45,-12.25 2.31,-18.09 0.77,-5.88 1.95,-13 3.49,-21.75 1.53,-8.68 2.71,-15.86 3.81,-21.52 1.06,-5.44 2.55,-13.25 4.69,-23.34 2.07,-10.07 3.43,-17.44 4.25,-22.25 1.01,0.03 2.5,-0.04 4.31,-0.37 5.89,-1.1 10.48,-3.82 13.57,-8.41 3.16,-4.62 4.07,-9.8 2.97,-15.7 -0.3,-1.59 -1.08,-2.31 -2.47,-2.05 -1.25,0.23 -2.84,0.53 -5.03,1.15 -2.18,0.62 -3.63,0.89 -4.46,1.04 -2.22,0.42 -3.85,0.51 -4.93,0.49 -0.07,-1.49 0.45,-6.4 1.78,-15.04 1.34,-8.65 2.43,-16.67 3.15,-23.92 0.73,-7.31 1.01,-11.59 0.83,-12.56 -1.86,-9.99 -8.69,-17.33 -20.59,-22.29 -11.83,-4.9 -24.06,-6.22 -36.89,-3.83l0.85 -1.22zm80.62 -16.47c-4.65,0.87 -6.74,3.13 -6.26,6.84 0.13,6.51 -0.67,18 -2.61,34.58 -1.94,16.51 -2.18,28.75 -0.69,36.73 2.38,12.76 9.03,18.06 20.2,15.98 6.04,-1.13 9.22,-4.45 9.21,-9.91 0.28,-6.58 3.11,-17.22 8.76,-31.91 5.59,-14.76 8.05,-24.26 7.26,-28.49 -1.02,-5.47 -6.08,-11.06 -14.94,-17.02 -8.85,-5.89 -15.98,-8.36 -21.26,-7.38l0.33 0.58zm195.61 90.38c-1.94,-10.41 -2.56,-19.55 -1.74,-27.46 0.82,-7.97 1.06,-12.46 0.88,-13.43 -0.8,-4.31 -3.22,-7.23 -7.14,-9.01 -3.92,-1.78 -8.04,-2.3 -12.27,-1.52 -5.47,1.02 -10.05,2.3 -13.57,3.82 -3.52,1.52 -6.92,4.45 -10.29,9.09 -3.31,4.57 -5.37,10.48 -6.31,17.76 -4.02,7.72 -10.87,22.91 -20.51,45.52 -9.64,22.61 -17.12,38.72 -22.21,48.35 -0.68,-0.52 -1.54,-0.58 -2.58,-0.38 -2.99,0.56 -5.63,3.35 -7.67,8.17 -1.99,4.76 -2.35,10.92 -0.94,18.48 1.24,6.66 4.4,15.54 9.22,26.7 4.72,11.11 10.95,22.94 18.45,35.46 7.57,12.52 17.01,22.74 28.28,30.48 11.36,7.79 22.81,10.75 34.12,8.64 18.31,-3.41 29.83,-14.82 34.81,-34.26 4.99,-19.45 4.72,-43.23 -0.5,-71.25 -2.13,-11.44 -5.63,-27.16 -10.66,-47.24 -5.05,-20.16 -8.56,-35.87 -10.73,-47.52l1.36 -0.4zm-75.5 100.54c11.36,-28.02 21.79,-55.23 31.16,-81.59 3.02,10.42 6.15,24.11 9.3,40.97 10.72,57.57 10.23,87.31 -1.77,89.54 -7.91,1.48 -15.99,-4.56 -24.13,-18.19 -8.2,-13.6 -13.06,-23.9 -14.38,-30.98l-0.18 0.25zm365.05 -83.01c-1.46,6.8 -5.43,18.23 -11.69,34.33 -6.26,16.09 -11.35,24.58 -15.23,25.3 -1.98,0.58 -3.35,-1.02 -4.04,-4.7 -1.77,-9.5 -0.23,-31.68 4.84,-66.5 5.08,-34.75 7.4,-52.7 7.22,-53.66 -1.25,-6.74 -6.22,-12.98 -14.86,-18.91 -8.64,-5.93 -16.26,-8.31 -22.57,-7.14 -6.66,1.25 -25.14,23.78 -55.38,67.96 0.01,-1.08 0.13,-2.82 0.26,-5.15 0.22,-2.34 0.38,-4.88 0.52,-7.63 0.13,-2.75 0.23,-5.28 0.6,-7.93 0.38,-2.59 0.67,-4.51 0.95,-6.07l0.38 -2.58c-0.69,-3.68 -6.77,-8.21 -18.32,-13.6 -11.5,-5.47 -19.66,-7.68 -24.38,-6.8 -2.63,0.49 -3.63,1.69 -3.28,3.56 0.04,0.21 0.07,0.42 0.31,0.52 0.25,0.16 0.29,0.37 0.33,0.58 -13.16,93.1 -17.34,151.94 -12.77,176.49 5.18,27.82 15.96,40.17 31.98,37.18 14.63,-2.73 25.47,-10.06 32.57,-21.64 -5.54,-9.3 -9.72,-21.74 -12.64,-37.41 -3.51,-18.87 -0.46,-41.75 9.46,-68.65 9.92,-26.82 21.38,-46.62 34.57,-59.41 -2.79,23.49 -4.36,48.97 -4.89,76.63 -0.51,27.65 0.18,45.97 1.88,55.13 5.74,32.3 16.08,47.02 30.85,44.27 9.58,-1.79 22.25,-19.28 38.12,-52.75 15.8,-33.45 23.67,-54.43 23.74,-63.27 -0.8,-4.3 -3.29,-8.43 -7.47,-12.74 -4.13,-4.4 -8.04,-6.19 -11.51,-5.54l0.45 0.13zm141.73 -26.62c-2.21,7.37 -4.92,15.2 -8.39,23.88 -3.43,8.6 -7.72,18.23 -12.65,28.84 -4.97,10.62 -10.61,19.7 -17,27 -6.46,7.3 -12.75,11.63 -18.86,12.77 -9.32,0.87 -17.11,-4 -23.77,-14.74 -6.6,-10.75 -11.1,-22.55 -13.53,-35.58 -1.09,-5.9 -1.54,-10.63 -1.47,-14.45 9.32,6.88 18.99,9.46 28.97,7.59 8.33,-1.55 16.15,-8.88 23.77,-22.29 7.69,-13.42 13.26,-27.45 16.83,-42.18 3.56,-14.8 4.64,-25.91 3.25,-33.4 -2.54,-13.6 -12.08,-24.45 -28.72,-32.47 -16.66,-8.1 -31.86,-10.72 -45.73,-8.13 -12.14,2.26 -22.14,11.73 -29.82,28.3 -7.63,16.49 -12.52,35.28 -14.61,56.05 -2,20.82 -3.04,39.89 -3.2,57.14 -0.14,17.34 0.54,29.84 1.97,37.54 9.29,49.87 34.28,71.12 75.14,63.51 15.8,-2.94 30.44,-12.64 43.91,-29.29 13.56,-16.59 24.09,-35.63 31.85,-57.1 7.31,-20.45 10.7,-32.71 9.99,-36.53 -1.26,-7.16 -7.32,-12.34 -18.18,-15.56l0.25 -0.9zm-81.73 -78.51c3.61,-0.67 9.23,3.31 16.49,11.86 1.53,16.3 0.02,32.79 -4.68,49.17 -4.76,16.46 -9.87,25.24 -15.14,26.22 -4.06,0.54 -8.35,-2.04 -12.57,-7.78 0.1,-12.87 1.11,-25.61 3.21,-38.21 2.04,-12.57 4.21,-22.46 6.61,-29.65 2.47,-7.13 4.5,-10.89 6.16,-11.19l-0.08 -0.42zm93.33 187.01c-0.15,3.83 0.09,7.38 0.72,10.78 1.18,6.31 4.69,12.83 10.56,19.34 5.82,6.53 11.22,9.33 16.28,8.38 2.43,-0.45 3.49,-1.72 3.07,-3.94 3.46,-27.64 9.7,-56.14 18.54,-85.34 14.93,28.08 27.86,41.24 39.1,39.15 9.71,-1.81 22.76,-17.66 39.03,-47.82 16.2,-30.15 24.38,-49.4 24.57,-57.62 -0.8,-4.3 -3.29,-8.43 -7.46,-12.68 -4.1,-4.33 -8.02,-6.11 -11.49,-5.46 -0.09,0.66 -1.25,4.46 -3.34,11.38 -2.1,6.85 -3.98,12.51 -5.66,16.99 -1.66,4.55 -3.85,9.76 -6.49,15.99 -2.66,6.17 -5.58,10.87 -8.45,14.36 -2.93,3.48 -5.72,5.51 -8.36,6 -1.91,0.14 -3.66,-0.4 -5.41,-1.72 -3.88,-3.08 -11.52,-16.8 -22.65,-41.42 35.17,-91.32 54.74,-137.67 58.44,-139 1.66,-0.31 2.19,-1.7 1.74,-4.13 -0.41,-2.22 -3.79,-4.53 -10.08,-6.73 -6.3,-2.2 -11.68,-2.92 -16.11,-2.1 -2.64,0.49 -5.3,3.15 -8.27,7.65 -2.95,4.56 -6.12,11.04 -9.8,19.77 -3.63,8.64 -6.85,17.2 -9.91,25.81 -3,8.52 -6.71,19.12 -11.35,31.54 -4.64,12.42 -8.42,22.59 -11.53,30.57 -15.15,-37.37 -23.35,-59.82 -24.75,-67.38 -0.57,-3.04 -2.31,-5.45 -5.12,-7.01 -2.8,-1.55 -6.12,-2.45 -9.97,-2.73 -3.81,-0.37 -7.18,-0.39 -10.07,-0.07 -2.88,0.33 -5.55,0.61 -8.05,1.08 -12.55,2.34 -18.37,6.15 -17.38,11.48 0.6,0.9 1.76,3.62 3.56,7.96 1.87,4.24 3.58,8.8 5.04,13.55 1.53,4.74 2.82,9.39 3.65,13.82 3.94,21.15 2.75,45.14 -3.42,71.76 0.41,2.22 3.87,9.61 10.17,21.87 3.21,7.22 5.24,10 5.73,8.4 0.87,-2.25 1.73,-5.35 2.72,-9.34 0.9,-3.97 1.88,-7.96 2.8,-11.86 0.99,-3.99 1.94,-7.75 2.67,-11.47 0.81,-3.75 1.49,-7.03 1.81,-9.6l1.26 -3.61 12.38 30.57c-18.6,51.18 -27.94,82.35 -28.19,93.38l-0.53 -0.55zm146.93 -334.68c-0.63,0.11 -1.27,0.87 -1.92,2.07 -0.65,1.13 -0.91,2.03 -0.79,2.66 0.14,0.76 1.36,2.69 3.55,5.59 2.27,2.94 3.75,6.26 4.38,9.66 0.46,2.43 -0.5,12.29 -2.52,29.6 -2,17.38 -3.11,27.21 -3.28,29.75l-7.08 1.32c-6.68,1.46 -12.09,5.2 -16.21,11.2 -4.11,6.08 -5.56,12.17 -4.42,18.27 1.1,5.89 3.29,8.43 6.76,7.78 0.56,-0.1 1.65,-1.17 3.15,-3.1 1.57,-1.95 3.52,-3.82 5.93,-5.55 2.41,-1.68 5.64,-2.49 9.47,-2.34 -1.3,11.15 -3.28,26.66 -6.07,46.35 -2.86,19.69 -4.96,35.43 -6.37,47.11 -1.43,11.61 -2.41,24.43 -2.97,38.38 -0.54,14.02 -0.03,25.69 1.76,35.27 2.54,13.66 6.96,25.04 13.01,33.96 6.12,8.98 13.14,12.77 21.04,11.3 7.56,-1.41 17,-11.64 28.61,-30.6 11.59,-19.03 21.3,-37.84 29.14,-56.6 7.93,-18.69 11.63,-29.29 11.14,-31.93 -0.72,-3.88 -3.61,-7.8 -8.29,-11.73 -4.76,-3.99 -8.06,-5.89 -9.86,-5.55 0.56,-0.11 -1.46,4.93 -6.03,15.04 -4.64,10.13 -10.12,20.4 -16.16,30.78 -6.03,10.38 -10.54,15.82 -13.17,16.31 -2.02,0.38 -3.59,-2.28 -4.69,-8.17 -0.57,-3.05 -0.82,-6.74 -0.79,-11.19 0.03,-4.45 0.27,-9.73 1.04,-15.98 0.71,-6.24 1.45,-12.25 2.31,-18.09 0.76,-5.88 1.95,-13 3.48,-21.75 1.54,-8.68 2.71,-15.86 3.81,-21.52 1.07,-5.44 2.56,-13.25 4.7,-23.34 2.07,-10.07 3.42,-17.44 4.24,-22.25 1.02,0.03 2.51,-0.04 4.32,-0.37 5.89,-1.1 10.48,-3.82 13.57,-8.41 3.16,-4.62 4.06,-9.8 2.96,-15.7 -0.29,-1.59 -1.08,-2.31 -2.47,-2.05 -1.24,0.23 -2.84,0.53 -5.02,1.15 -2.18,0.62 -3.64,0.89 -4.46,1.04 -2.23,0.42 -3.86,0.51 -4.94,0.49 -0.06,-1.49 0.46,-6.4 1.79,-15.04 1.34,-8.65 2.42,-16.67 3.15,-23.92 0.72,-7.31 1,-11.59 0.82,-12.56 -1.86,-9.99 -8.69,-17.33 -20.59,-22.29 -11.83,-4.9 -24.05,-6.22 -36.88,-3.83l0.85 -1.22z"/>
  <path class="fil1" d="M1588.39 855.26c12.61,-4.3 23.03,-15.06 30.97,-32.11 7.96,-16.98 13.24,-36.05 15.87,-57 2.64,-20.88 3.97,-40.72 4.03,-59.61 0.06,-18.95 -1.12,-34.09 -3.23,-45.46 -6.36,-34.13 -17.87,-49.71 -34.52,-46.61 -13.76,2.78 -28.15,24.2 -43.22,64.24 1.29,-6.54 3.15,-14.72 5.38,-24.32 2.21,-9.67 3.89,-17.59 5.01,-23.9 1.2,-6.32 2.49,-12.88 3.75,-19.57 1.27,-6.7 2.15,-12.32 2.57,-16.99 0.36,-4.66 0.29,-8.45 -0.2,-11.08 -1.77,-9.51 -8.58,-16.78 -20.71,-21.84 -12.14,-5.06 -24.57,-6.32 -37.41,-3.93 -0.62,0.11 -1.34,0.89 -1.97,2.08 -0.59,1.12 -0.85,2.02 -0.73,2.65 0.14,0.77 1.27,2.63 3.55,5.59 2.2,2.95 3.66,6.2 4.31,9.67 1.26,10.24 -2.53,49.63 -11.25,118.72 -8.72,69.16 -11.23,114.19 -7.29,135.34 5.89,32.78 16.32,48.35 31.1,45.6 6.35,-0.97 14.62,-10.48 25.02,-27.84 6.4,6.98 15.49,9.52 27.49,7.28l1.48 -0.91zm-42.75 -100.77c18.12,-49.88 31.26,-75.65 39.17,-77.13 3.46,-0.64 6.23,4.95 8.39,16.53 2.95,15.81 2.84,33.34 -0.39,52.24 -3.23,18.83 -8.26,34.99 -15.1,48.03 -6.89,13.05 -13.53,20.18 -19.84,21.35 -4.3,0.81 -8.17,-1.85 -11.64,-8.16 -2.24,-22.04 -2.59,-39.71 -1.01,-52.78l0.42 -0.08zm241.79 -51.51c-1.47,6.74 -5.42,18.24 -11.69,34.34 -6.26,16.08 -11.42,24.58 -15.3,25.31 -2.02,0.37 -2,-8.46 -0.05,-26.47 1.88,-18.01 4.13,-37.52 6.72,-58.67 2.6,-21.08 3.57,-34.03 2.61,-39.17 -1.63,-8.74 -7.44,-16.06 -17.37,-21.96 -9.94,-5.97 -19.53,-10.06 -28.98,-12.24 -9.4,-2.28 -18.7,-3.7 -28.06,-4.26 -0.25,-2.46 -0.57,-5.34 -1.22,-8.81 -1.07,-4.6 -3.53,-8.6 -7.06,-11.75 -3.52,-3.08 -7.1,-5.35 -10.71,-6.61 -3.59,-1.2 -7.68,-1.95 -12.17,-2.12 -4.42,-0.25 -7.59,-0.3 -9.29,-0.2 -1.63,0.09 -2.92,0.11 -3.69,0.25 1.01,4.27 2.26,10.14 3.69,17.84 8.75,46.95 8.12,92.92 -2.18,138.13l-5.67 20.43c0.87,4.65 4.07,7.21 9.82,7.64 5.74,0.36 10.28,-0.27 13.56,-1.95 3.56,-10.14 8.04,-28.85 13.62,-56.36 5.63,-27.53 8.91,-50.4 10.11,-68.92 14.14,8.06 22,16.71 23.7,25.87 3.29,17.25 2.92,43.38 -0.73,78.51 -3.7,35.21 -5.38,55.47 -5.03,60.86 0.89,12.46 4.36,23.37 10.46,32.57 6.14,9.12 13.13,13.13 21.04,11.66 9.71,-1.81 22.31,-19.31 38.18,-52.76 15.8,-33.45 23.66,-54.44 23.74,-63.28l-0.46 -2.5c-1.32,-7.07 -7.48,-12.02 -18.27,-14.82l0.68 -0.56zm133.16 -14.47c0.04,0.21 -0.46,0.95 -1.32,2.11 -0.78,1.22 -2.46,2.61 -4.7,4.04 -2.24,1.49 -5.22,2.47 -8.89,3.16 -3.05,0.57 -6.6,0.8 -10.57,0.68 6.4,-32.34 7.87,-57.96 4.42,-76.47 -2.62,-14.09 -9.99,-26.63 -22.09,-37.65 -12.17,-11.02 -27.6,-14.88 -46.54,-11.36 -11.59,2.16 -21.29,10.93 -29.08,26.52 -7.86,15.6 -12.97,33.21 -15.58,53.07 -2.62,19.87 -4.17,38.53 -4.48,56.1 -0.34,17.5 0.33,31.08 2.1,40.58 1.71,9.16 3.6,16.99 5.43,23.32 1.82,6.34 4.52,13.16 7.93,20.27 3.48,7.1 8.15,12.11 14.03,15.18 5.81,3.09 12.72,3.95 20.42,2.51 22.95,-4.27 41.39,-30.53 55.32,-78.99 6.58,0.65 12.64,0.37 18.11,-0.65 16.89,-3.36 28.57,-12.7 35.19,-28 0.09,-0.67 0.2,-1.26 0.04,-2.1 -0.68,-3.68 -3.71,-6.48 -8.96,-8.44 -5.18,-1.98 -9.16,-2.89 -11.7,-3.07l0.92 -0.81zm-92.27 23.94c-2.14,-16.04 -2.32,-32.87 -0.41,-50.74 1.91,-17.86 4.5,-32.06 7.85,-42.59 3.28,-10.51 6.08,-15.91 8.3,-16.32 2.42,-0.45 4.96,-0.29 7.83,0.47 2.86,0.69 6.43,4.04 10.86,9.75 4.44,5.71 7.66,13.79 9.63,24.33 1.97,10.61 0.2,28.46 -5.21,53.29l-1.88 0.35c-5.47,1.02 -9.5,4.07 -11.96,8.97 -2.46,4.92 -3.22,10.07 -2.19,15.56 0.85,3.43 2.33,6.73 4.64,9.9 -2.21,8.58 -5.74,13.48 -10.8,14.43 -7.49,1.39 -12.99,-7.7 -16.66,-27.4z"/>
  <path class="fil1" d="M2211.87 116.58c-5.37,-37.79 -21.12,-65.29 -47.04,-82.4 -25.82,-17.13 -53.72,-22.1 -83.74,-14.32 -31.91,8.27 -57.63,30.44 -77.55,66.6 -20.02,36.2 -27.19,75.09 -21.58,116.98 2.14,15.96 12.43,29.66 30.92,41.37 18.48,11.57 34.23,15.96 47.09,12.63 7.88,-2.05 11.36,-7.69 10.17,-16.56 -0.22,-1.67 -1.25,-4.71 -3.4,-9.17 -2.06,-4.64 -3.31,-9.34 -3.96,-14.19 -1.8,-13.45 -2.13,-29.74 -1.09,-48.95 1.04,-19.21 5.03,-38.77 12.1,-58.4 7.09,-19.49 16.72,-30.75 28.99,-33.93 20.19,-4.8 33.13,12.37 38.42,51.91 3.92,29.27 2.07,60.91 -5.46,94.86 -7.52,33.96 -18.18,65.29 -31.55,94.16 -13.38,28.74 -27.29,55.88 -41.26,81.75 -14.06,26.03 -25.7,50.01 -34.86,71.76 -9.16,21.76 -12.96,38.81 -11.32,51.02 1.89,14.15 7.22,24.68 15.93,31.18 8.83,6.61 17.25,8.59 25.13,6.55 9.07,-2.36 13.07,-7.98 11.86,-17 -1.69,-12.63 2.84,-28.86 13.77,-48.93 10.91,-20.19 24.52,-42.67 40.49,-67.48 16.09,-24.7 31.79,-51.58 47.62,-80.52 15.73,-28.91 27.7,-63.59 36.25,-103.71 8.56,-40.11 10.32,-80.89 4.99,-123.01l-0.92 -2.2zm-128.11 532.58c-1.8,-13.46 -5.96,-23.72 -12.46,-31.36 -6.37,-7.54 -13.75,-10.21 -21.63,-8.17 -11.96,3.1 -21.66,13.93 -29.19,32.4 -7.55,18.31 -10.05,37.48 -7.43,57.03 1.8,13.46 5.57,23.83 11.65,30.73 6.06,6.74 13.3,9.17 21.78,6.97 13.16,-3.41 23.43,-14.53 30.64,-33.19 7.07,-18.78 9.53,-36.64 7.24,-53.7l-0.6 -0.71z"/>
 </g>
</svg>
